<svg width="28" height="28" viewBox="0 0 28 28" fill="none" xmlns="http://www.w3.org/2000/svg">
<path d="M27.0375 12.2375L15.775 0.975002C14.8375 0.0375017 13.1875 0.0250017 12.2375 0.975002L0.987506 12.225C0.0125061 13.2 0.0125061 14.775 0.987506 15.75L12.2375 27C12.725 27.4875 13.3625 27.725 14 27.725C14.6375 27.725 15.275 27.4875 15.7625 27L27 15.7625C27.9875 14.8125 28 13.2375 27.0375 12.2375ZM14.0125 25.2375L2.76251 13.9875L14.0125 2.7375L25.2625 13.9875L14.0125 25.2375ZM9.00001 12.75V17.75H11.5V14H16.5V17.125L20.875 12.75L16.5 8.375V11.5H10.25C9.56251 11.5 9.00001 12.0625 9.00001 12.75Z" fill="#323232"/>
</svg>
